solid v3d.csg
  facet normal -0.0 0.0 -1.0
    outer loop
      vertex 10.0 37.5 0.0
      vertex 0.0 33.5 0.0
      vertex -2.0 37.5 0.0
    endloop
  endfacet
  facet normal 0.0 -0.0 -1.0
    outer loop
      vertex 10.0 37.5 0.0
      vertex 10.0 35.5 0.0
      vertex 0.0 33.5 0.0
    endloop
  endfacet
  facet normal 0.0 0.0 -1.0
    outer loop
      vertex 0.0 27.5 0.0
      vertex -2.0 37.5 0.0
      vertex 0.0 33.5 0.0
    endloop
  endfacet
  facet normal 0.0 0.0 -1.0
    outer loop
      vertex 0.0 25.5 0.0
      vertex -2.0 37.5 0.0
      vertex 0.0 27.5 0.0
    endloop
  endfacet
  facet normal 0.0 0.0 -1.0
    outer loop
      vertex 0.0 4.0 0.0
      vertex -2.0 37.5 0.0
      vertex 0.0 25.5 0.0
    endloop
  endfacet
  facet normal 0.0 0.0 -1.0
    outer loop
      vertex 53.5 25.5 0.0
      vertex 0.0 25.5 0.0
      vertex 0.0 27.5 0.0
    endloop
  endfacet
  facet normal -0.0 0.0 -1.0
    outer loop
      vertex 0.0 4.0 0.0
      vertex -2.0 -2.0 0.0
      vertex -2.0 37.5 0.0
    endloop
  endfacet
  facet normal -0.0 0.0 -1.0
    outer loop
      vertex 55.5 27.5 0.0
      vertex 53.5 25.5 0.0
      vertex 0.0 27.5 0.0
    endloop
  endfacet
  facet normal -0.0 0.0 -1.0
    outer loop
      vertex 13.0 0.0 0.0
      vertex -2.0 -2.0 0.0
      vertex 0.0 4.0 0.0
    endloop
  endfacet
  facet normal 0.0 -0.0 -1.0
    outer loop
      vertex 55.5 27.5 0.0
      vertex 55.5 10.45 0.0
      vertex 53.5 25.5 0.0
    endloop
  endfacet
  facet normal 0.0 0.0 -1.0
    outer loop
      vertex 22.41 -2.0 0.0
      vertex -2.0 -2.0 0.0
      vertex 13.0 0.0 0.0
    endloop
  endfacet
  facet normal 0.0 0.0 -1.0
    outer loop
      vertex 13.0 0.0 0.0
      vertex 0.0 4.0 0.0
      vertex 13.0 2.0 0.0
    endloop
  endfacet
  facet normal 0.0 0.0 -1.0
    outer loop
      vertex 55.5 10.45 0.0
      vertex 53.5 10.45 0.0
      vertex 53.5 25.5 0.0
    endloop
  endfacet
  facet normal 0.0 0.0 -1.0
    outer loop
      vertex 22.41 -2.0 0.0
      vertex 13.0 0.0 0.0
      vertex 21.11 0.0 0.0
    endloop
  endfacet
  facet normal -0.0 0.0 -1.0
    outer loop
      vertex 21.11 4.0 0.0
      vertex 13.0 2.0 0.0
      vertex 0.0 4.0 0.0
    endloop
  endfacet
  facet normal 0.0 0.0 -1.0
    outer loop
      vertex 21.11 0.0 0.0
      vertex 21.810000000000002 0.6 0.0
      vertex 22.41 -2.0 0.0
    endloop
  endfacet
  facet normal 0.0 -0.0 -1.0
    outer loop
      vertex 21.11 4.0 0.0
      vertex 21.11 2.0 0.0
      vertex 13.0 2.0 0.0
    endloop
  endfacet
  facet normal 0.0 0.0 -1.0
    outer loop
      vertex 21.11 0.0 0.0
      vertex 21.41 0.6 0.0
      vertex 21.810000000000002 0.6 0.0
    endloop
  endfacet
  facet normal 0.0 -1.0 0.0
    outer loop
      vertex 22.41 -2.0 0.0
      vertex 22.41 -2.0 15.0
      vertex -2.0 -2.0 15.0
    endloop
  endfacet
  facet normal 0.0 -1.0 0.0
    outer loop
      vertex 22.41 -2.0 0.0
      vertex -2.0 -2.0 15.0
      vertex -2.0 -2.0 0.0
    endloop
  endfacet
  facet normal 0.9743911956946201 0.2248595066987577 -0.0
    outer loop
      vertex 21.810000000000002 0.6 0.0
      vertex 21.810000000000002 0.6 15.0
      vertex 22.41 -2.0 15.0
    endloop
  endfacet
  facet normal 0.9743911956946201 0.2248595066987577 -0.0
    outer loop
      vertex 21.810000000000002 0.6 0.0
      vertex 22.41 -2.0 15.0
      vertex 22.41 -2.0 0.0
    endloop
  endfacet
  facet normal 0.0 1.0 0.0
    outer loop
      vertex 21.41 0.6 0.0
      vertex 21.41 0.6 15.0
      vertex 21.810000000000002 0.6 15.0
    endloop
  endfacet
  facet normal 0.0 1.0 0.0
    outer loop
      vertex 21.41 0.6 0.0
      vertex 21.810000000000002 0.6 15.0
      vertex 21.810000000000002 0.6 0.0
    endloop
  endfacet
  facet normal -0.8944271909999155 0.4472135954999588 0.0
    outer loop
      vertex 21.11 0.0 0.0
      vertex 21.11 0.0 15.0
      vertex 21.41 0.6 15.0
    endloop
  endfacet
  facet normal -0.8944271909999155 0.4472135954999588 0.0
    outer loop
      vertex 21.11 0.0 0.0
      vertex 21.41 0.6 15.0
      vertex 21.41 0.6 0.0
    endloop
  endfacet
  facet normal 0.0 1.0 0.0
    outer loop
      vertex 13.0 0.0 0.0
      vertex 13.0 0.0 15.0
      vertex 21.11 0.0 15.0
    endloop
  endfacet
  facet normal 0.0 1.0 0.0
    outer loop
      vertex 13.0 0.0 0.0
      vertex 21.11 0.0 15.0
      vertex 21.11 0.0 0.0
    endloop
  endfacet
  facet normal 1.0 0.0 -0.0
    outer loop
      vertex 13.0 2.0 0.0
      vertex 13.0 2.0 15.0
      vertex 13.0 0.0 15.0
    endloop
  endfacet
  facet normal 1.0 0.0 -0.0
    outer loop
      vertex 13.0 2.0 0.0
      vertex 13.0 0.0 15.0
      vertex 13.0 0.0 0.0
    endloop
  endfacet
  facet normal 0.0 -1.0 0.0
    outer loop
      vertex 21.11 2.0 0.0
      vertex 21.11 2.0 15.0
      vertex 13.0 2.0 15.0
    endloop
  endfacet
  facet normal 0.0 -1.0 0.0
    outer loop
      vertex 21.11 2.0 0.0
      vertex 13.0 2.0 15.0
      vertex 13.0 2.0 0.0
    endloop
  endfacet
  facet normal 1.0 0.0 -0.0
    outer loop
      vertex 21.11 4.0 0.0
      vertex 21.11 4.0 15.0
      vertex 21.11 2.0 15.0
    endloop
  endfacet
  facet normal 1.0 0.0 -0.0
    outer loop
      vertex 21.11 4.0 0.0
      vertex 21.11 2.0 15.0
      vertex 21.11 2.0 0.0
    endloop
  endfacet
  facet normal 0.0 1.0 0.0
    outer loop
      vertex 0.0 4.0 0.0
      vertex 0.0 4.0 15.0
      vertex 21.11 4.0 15.0
    endloop
  endfacet
  facet normal 0.0 1.0 0.0
    outer loop
      vertex 0.0 4.0 0.0
      vertex 21.11 4.0 15.0
      vertex 21.11 4.0 0.0
    endloop
  endfacet
  facet normal 1.0 0.0 -0.0
    outer loop
      vertex 0.0 25.5 0.0
      vertex 0.0 25.5 15.0
      vertex 0.0 4.0 15.0
    endloop
  endfacet
  facet normal 1.0 0.0 -0.0
    outer loop
      vertex 0.0 25.5 0.0
      vertex 0.0 4.0 15.0
      vertex 0.0 4.0 0.0
    endloop
  endfacet
  facet normal 0.0 -1.0 0.0
    outer loop
      vertex 53.5 25.5 0.0
      vertex 53.5 25.5 15.0
      vertex 0.0 25.5 15.0
    endloop
  endfacet
  facet normal 0.0 -1.0 0.0
    outer loop
      vertex 53.5 25.5 0.0
      vertex 0.0 25.5 15.0
      vertex 0.0 25.5 0.0
    endloop
  endfacet
  facet normal -1.0 0.0 0.0
    outer loop
      vertex 53.5 10.45 0.0
      vertex 53.5 10.45 15.0
      vertex 53.5 25.5 15.0
    endloop
  endfacet
  facet normal -1.0 0.0 0.0
    outer loop
      vertex 53.5 10.45 0.0
      vertex 53.5 25.5 15.0
      vertex 53.5 25.5 0.0
    endloop
  endfacet
  facet normal 0.0 -1.0 0.0
    outer loop
      vertex 55.5 10.45 0.0
      vertex 55.5 10.45 15.0
      vertex 53.5 10.45 15.0
    endloop
  endfacet
  facet normal 0.0 -1.0 0.0
    outer loop
      vertex 55.5 10.45 0.0
      vertex 53.5 10.45 15.0
      vertex 53.5 10.45 0.0
    endloop
  endfacet
  facet normal 1.0 0.0 -0.0
    outer loop
      vertex 55.5 27.5 0.0
      vertex 55.5 27.5 15.0
      vertex 55.5 10.45 15.0
    endloop
  endfacet
  facet normal 1.0 0.0 -0.0
    outer loop
      vertex 55.5 27.5 0.0
      vertex 55.5 10.45 15.0
      vertex 55.5 10.45 0.0
    endloop
  endfacet
  facet normal 0.0 1.0 0.0
    outer loop
      vertex 0.0 27.5 0.0
      vertex 0.0 27.5 15.0
      vertex 55.5 27.5 15.0
    endloop
  endfacet
  facet normal 0.0 1.0 0.0
    outer loop
      vertex 0.0 27.5 0.0
      vertex 55.5 27.5 15.0
      vertex 55.5 27.5 0.0
    endloop
  endfacet
  facet normal 1.0 0.0 -0.0
    outer loop
      vertex 0.0 33.5 0.0
      vertex 0.0 33.5 15.0
      vertex 0.0 27.5 15.0
    endloop
  endfacet
  facet normal 1.0 0.0 -0.0
    outer loop
      vertex 0.0 33.5 0.0
      vertex 0.0 27.5 15.0
      vertex 0.0 27.5 0.0
    endloop
  endfacet
  facet normal 0.19611613513818407 -0.9805806756909202 0.0
    outer loop
      vertex 10.0 35.5 0.0
      vertex 10.0 35.5 15.0
      vertex 0.0 33.5 15.0
    endloop
  endfacet
  facet normal 0.19611613513818407 -0.9805806756909202 0.0
    outer loop
      vertex 10.0 35.5 0.0
      vertex 0.0 33.5 15.0
      vertex 0.0 33.5 0.0
    endloop
  endfacet
  facet normal 1.0 0.0 -0.0
    outer loop
      vertex 10.0 37.5 0.0
      vertex 10.0 37.5 15.0
      vertex 10.0 35.5 15.0
    endloop
  endfacet
  facet normal 1.0 0.0 -0.0
    outer loop
      vertex 10.0 37.5 0.0
      vertex 10.0 35.5 15.0
      vertex 10.0 35.5 0.0
    endloop
  endfacet
  facet normal 0.0 1.0 0.0
    outer loop
      vertex -2.0 37.5 0.0
      vertex -2.0 37.5 15.0
      vertex 10.0 37.5 15.0
    endloop
  endfacet
  facet normal 0.0 1.0 0.0
    outer loop
      vertex -2.0 37.5 0.0
      vertex 10.0 37.5 15.0
      vertex 10.0 37.5 0.0
    endloop
  endfacet
  facet normal -1.0 0.0 0.0
    outer loop
      vertex -2.0 -2.0 0.0
      vertex -2.0 -2.0 15.0
      vertex -2.0 37.5 15.0
    endloop
  endfacet
  facet normal -1.0 0.0 0.0
    outer loop
      vertex -2.0 -2.0 0.0
      vertex -2.0 37.5 15.0
      vertex -2.0 37.5 0.0
    endloop
  endfacet
  facet normal -0.0 0.0 1.0
    outer loop
      vertex -2.0 37.5 15.0
      vertex 0.0 33.5 15.0
      vertex 10.0 37.5 15.0
    endloop
  endfacet
  facet normal 0.0 0.0 1.0
    outer loop
      vertex 0.0 33.5 15.0
      vertex 10.0 35.5 15.0
      vertex 10.0 37.5 15.0
    endloop
  endfacet
  facet normal 0.0 0.0 1.0
    outer loop
      vertex 0.0 33.5 15.0
      vertex -2.0 37.5 15.0
      vertex 0.0 27.5 15.0
    endloop
  endfacet
  facet normal 0.0 0.0 1.0
    outer loop
      vertex 0.0 27.5 15.0
      vertex -2.0 37.5 15.0
      vertex 0.0 25.5 15.0
    endloop
  endfacet
  facet normal 0.0 0.0 1.0
    outer loop
      vertex 0.0 25.5 15.0
      vertex -2.0 37.5 15.0
      vertex 0.0 4.0 15.0
    endloop
  endfacet
  facet normal 0.0 0.0 1.0
    outer loop
      vertex 0.0 27.5 15.0
      vertex 0.0 25.5 15.0
      vertex 53.5 25.5 15.0
    endloop
  endfacet
  facet normal 0.0 0.0 1.0
    outer loop
      vertex -2.0 37.5 15.0
      vertex -2.0 -2.0 15.0
      vertex 0.0 4.0 15.0
    endloop
  endfacet
  facet normal -0.0 0.0 1.0
    outer loop
      vertex 0.0 27.5 15.0
      vertex 53.5 25.5 15.0
      vertex 55.5 27.5 15.0
    endloop
  endfacet
  facet normal 0.0 0.0 1.0
    outer loop
      vertex 0.0 4.0 15.0
      vertex -2.0 -2.0 15.0
      vertex 13.0 0.0 15.0
    endloop
  endfacet
  facet normal -0.0 0.0 1.0
    outer loop
      vertex 53.5 25.5 15.0
      vertex 55.5 10.45 15.0
      vertex 55.5 27.5 15.0
    endloop
  endfacet
  facet normal 0.0 0.0 1.0
    outer loop
      vertex 13.0 0.0 15.0
      vertex -2.0 -2.0 15.0
      vertex 22.41 -2.0 15.0
    endloop
  endfacet
  facet normal 0.0 0.0 1.0
    outer loop
      vertex 13.0 2.0 15.0
      vertex 0.0 4.0 15.0
      vertex 13.0 0.0 15.0
    endloop
  endfacet
  facet normal 0.0 0.0 1.0
    outer loop
      vertex 53.5 25.5 15.0
      vertex 53.5 10.45 15.0
      vertex 55.5 10.45 15.0
    endloop
  endfacet
  facet normal 0.0 0.0 1.0
    outer loop
      vertex 21.11 0.0 15.0
      vertex 13.0 0.0 15.0
      vertex 22.41 -2.0 15.0
    endloop
  endfacet
  facet normal -0.0 0.0 1.0
    outer loop
      vertex 0.0 4.0 15.0
      vertex 13.0 2.0 15.0
      vertex 21.11 4.0 15.0
    endloop
  endfacet
  facet normal 0.0 0.0 1.0
    outer loop
      vertex 22.41 -2.0 15.0
      vertex 21.810000000000002 0.6 15.0
      vertex 21.11 0.0 15.0
    endloop
  endfacet
  facet normal 0.0 0.0 1.0
    outer loop
      vertex 13.0 2.0 15.0
      vertex 21.11 2.0 15.0
      vertex 21.11 4.0 15.0
    endloop
  endfacet
  facet normal 0.0 0.0 1.0
    outer loop
      vertex 21.810000000000002 0.6 15.0
      vertex 21.41 0.6 15.0
      vertex 21.11 0.0 15.0
    endloop
  endfacet
endsolid v3d.csg
